<!-- Generated by IcoMoon.io -->
<svg version="1.1" xmlns="http://www.w3.org/2000/svg" width="1024" height="1024" viewBox="0 0 1024 1024">
<title></title>
<g id="icomoon-ignore">
</g>
<path fill="#000" d="M219.819 219.819c9.263-9.252 22.054-14.974 36.181-14.974s26.918 5.722 36.182 14.974l219.818 219.775 219.819-219.776c9.373-10.039 22.685-16.296 37.458-16.296 28.277 0 51.2 22.923 51.2 51.2 0 14.774-6.257 28.086-16.266 37.431l-0.030 0.027-219.776 219.819 219.776 219.819c8.514 9.118 13.742 21.401 13.742 34.904 0 28.277-22.923 51.2-51.2 51.2-13.503 0-25.786-5.227-34.934-13.769l0.030 0.027-219.819-219.776-219.819 219.776c-9.118 8.514-21.401 13.742-34.904 13.742-28.277 0-51.2-22.923-51.2-51.2 0-13.503 5.227-25.786 13.769-34.934l-0.027 0.030 219.776-219.819-219.776-219.819c-9.252-9.263-14.974-22.054-14.974-36.181s5.722-26.918 14.974-36.182l-0.001 0.001z"></path>
</svg>
